#!OML:ASF F:\VICON\USERDATA\INSTALL\rory3\rory3.ASF
:FULLY-SPECIFIED
:DEGREES
781
root 9.31631 17.9972 8.14904 10.0235 29.9464 4.68191
lowerback -7.36382 -1.39108 -4.0972
upperback -2.67441 -1.50803 -1.44379
thorax 1.42927 -0.733772 0.682712
lowerneck -17.622 2.53377 4.31668
upperneck 24.8059 3.3851 -3.56034
head 11.082 1.54013 -1.51897
rclavicle 1.53872e-014 8.74653e-015
rhumerus -37.8569 0.52166 -85.1841
rradius 25.5104
rwrist 8.71598
rhand -20.7872 10.0902
rfingers 7.12502
rthumb 5.5798 -19.8163
lclavicle 1.53872e-014 8.74653e-015
lhumerus -34.1229 -15.2495 85.4195
lradius 51.192
lwrist 18.6115
lhand -9.44684 27.4577
lfingers 7.12502
lthumb 16.5163 56.7748
rfemur -29.056 -2.17608 12.5625
rtibia 45.1107
rfoot -19.0996 7.8678
rtoes -16.0249
lfemur -17.9692 8.40932 -28.3785
ltibia 31.0276
lfoot -19.0928 -3.7142
ltoes -8.12174
782
root 9.36029 17.9979 8.22759 9.97072 30.2598 4.91872
lowerback -7.26791 -1.34554 -4.26609
upperback -2.47974 -1.42982 -1.66388
thorax 1.57213 -0.699514 0.556576
lowerneck -18.0207 2.45545 4.59832
upperneck 24.9651 3.13914 -3.438
head 11.2118 1.46614 -1.55703
rclavicle 9.36617e-014 2.127e-014
rhumerus -37.5548 -0.0643088 -85.2996
rradius 25.4646
rwrist 8.99986
rhand -20.7727 10.1214
rfingers 7.12502
rthumb 5.59384 -19.7848
lclavicle 9.36617e-014 2.127e-014
lhumerus -33.7783 -15.7565 85.1953
lradius 51.7173
lwrist 18.6157
lhand -9.5304 27.5791
lfingers 7.12502
lthumb 16.4358 56.9028
rfemur -29.1302 -1.8536 12.3003
rtibia 43.6375
rfoot -19.1104 8.00201
rtoes -15.9137
lfemur -17.167 8.30789 -28.4599
ltibia 30.5755
lfoot -19.3882 -3.84199
ltoes -9.45818
783
root 9.40312 18.0058 8.30543 9.92377 30.7076 5.08858
lowerback -7.16834 -1.36857 -4.40703
upperback -2.35961 -1.45078 -1.72993
thorax 1.64338 -0.712579 0.565893
lowerneck -18.0621 2.33414 4.49946
upperneck 24.9369 2.94936 -3.28078
head 11.1959 1.39 -1.51087
rclavicle 7.45939e-014 -1.37161e-014
rhumerus -37.3746 -0.251553 -85.2524
rradius 25.4764
rwrist 9.24065
rhand -20.6429 10.21
rfingers 7.12502
rthumb 5.71917 -19.6928
lclavicle 7.45939e-014 -1.37161e-014
lhumerus -33.562 -16.0399 85.2092
lradius 52.1817
lwrist 18.6985
lhand -9.33432 27.6263
lfingers 7.12502
lthumb 16.6246 56.9343
rfemur -29.1623 -1.52822 12.0922
rtibia 42.1573
rfoot -19.1112 8.02789
rtoes -15.7606
lfemur -16.3822 8.19743 -28.4668
ltibia 30.0674
lfoot -19.3987 -4.14045
ltoes -9.27341
784
root 9.44404 18.0144 8.37889 9.9439 31.1338 5.18878
lowerback -7.17319 -1.3388 -4.43113
upperback -2.28825 -1.40525 -1.77748
thorax 1.71726 -0.691956 0.533221
lowerneck -18.0435 2.16468 4.30598
upperneck 24.9287 2.72816 -3.13501
head 11.1734 1.29017 -1.45809
rclavicle 4.17634e-014 1.37161e-014
rhumerus -37.2951 -0.46906 -85.1445
rradius 25.6023
rwrist 9.54246
rhand -20.7264 10.0339
rfingers 7.12502
rthumb 5.63856 -19.871
lclavicle 4.17634e-014 1.37161e-014
lhumerus -33.4312 -16.3972 85.3295
lradius 52.6381
lwrist 18.771
lhand -9.49411 27.2943
lfingers 7.12502
lthumb 16.4708 56.6151
rfemur -29.3008 -1.2183 11.9141
rtibia 40.6738
rfoot -18.8654 8.30315
rtoes -15.2582
lfemur -15.7462 8.13828 -28.4204
ltibia 29.5758
lfoot -19.3426 -4.58355
ltoes -8.75295
785
root 9.48573 18.0195 8.45271 10.0199 31.5541 5.27173
lowerback -7.251 -1.35049 -4.4522
upperback -2.22907 -1.41057 -1.82655
thorax 1.82113 -0.696898 0.491326
lowerneck -18.1044 2.06746 4.27919
upperneck 24.9865 2.57671 -3.06062
head 11.1989 1.22832 -1.44912
rclavicle 3.76821e-014 1.53064e-014
rhumerus -37.085 -0.796654 -85.0674
rradius 25.5844
rwrist 9.81515
rhand -20.7282 10.0063
rfingers 7.12502
rthumb 5.63673 -19.8987
lclavicle 3.76821e-014 1.53064e-014
lhumerus -33.3221 -16.6752 85.3629
lradius 53.0687
lwrist 18.8809
lhand -9.82584 26.8344
lfingers 7.12502
lthumb 16.1514 56.1814
rfemur -29.4747 -0.934592 11.7483
rtibia 39.1819
rfoot -18.6115 8.53532
rtoes -15.5537
lfemur -15.1983 8.06608 -28.3698
ltibia 29.1231
lfoot -19.3706 -4.99414
ltoes -8.10813
786
root 9.52787 18.0269 8.52233 10.4374 32.0047 5.35409
lowerback -7.54983 -1.45755 -4.47838
upperback -2.31701 -1.53303 -1.85228
thorax 1.90112 -0.757301 0.462413
lowerneck -18.081 2.0163 4.38105
upperneck 24.9876 2.47756 -3.07388
head 11.1921 1.1919 -1.48617
rclavicle -3.72162e-014 -2.72335e-014
rhumerus -36.8276 -1.07115 -85.0935
rradius 25.4442
rwrist 10.1288
rhand -20.613 10.1588
rfingers 7.12502
rthumb 5.74802 -19.7433
lclavicle -3.72162e-014 -2.72335e-014
lhumerus -33.3414 -16.7755 85.3355
lradius 53.5083
lwrist 18.8792
lhand -9.88945 26.6891
lfingers 7.12502
lthumb 16.0901 56.0411
rfemur -30.0292 -0.656406 11.5765
rtibia 37.7174
rfoot -18.4755 8.3302
rtoes -16.5319
lfemur -15.081 7.67199 -28.4088
ltibia 28.7017
lfoot -19.1016 -5.19305
ltoes -6.12876
787
root 9.56719 18.0385 8.59384 10.6742 32.4483 5.40081
lowerback -7.69874 -1.5329 -4.52675
upperback -2.34787 -1.62038 -1.8454
thorax 1.95684 -0.800883 0.484952
lowerneck -18.1127 1.96081 4.39496
upperneck 25.0456 2.38679 -3.04439
head 11.216 1.15616 -1.49161
rclavicle 5.70264e-015 -2.38542e-015
rhumerus -36.645 -1.17756 -85.1341
rradius 25.4595
rwrist 10.2683
rhand -20.6086 10.1424
rfingers 7.12502
rthumb 5.75224 -19.7595
lclavicle 5.70264e-015 -2.38542e-015
lhumerus -33.2851 -16.8237 85.3405
lradius 53.8522
lwrist 18.8083
lhand -9.81514 26.791
lfingers 7.12502
lthumb 16.1617 56.1372
rfemur -30.3734 -0.43843 11.4695
rtibia 36.2545
rfoot -18.2499 8.21055
rtoes -16.6697
lfemur -14.8006 7.39484 -28.3681
ltibia 28.326
lfoot -18.9474 -5.41056
ltoes -5.18847
788
root 9.60621 18.048 8.66321 10.9137 32.9008 5.50007
lowerback -7.81553 -1.5729 -4.61119
upperback -2.37445 -1.66004 -1.82723
thorax 1.99853 -0.820592 0.544353
lowerneck -18.108 1.85965 4.20584
upperneck 25.0852 2.27588 -2.94533
head 11.2211 1.10101 -1.44023
rclavicle 4.60466e-015 2.68359e-014
rhumerus -36.6602 -1.04513 -85.1755
rradius 25.7104
rwrist 10.1369
rhand -20.7382 9.95394
rfingers 7.12502
rthumb 5.62712 -19.9513
lclavicle 4.60466e-015 2.68359e-014
lhumerus -33.2176 -16.8542 85.4705
lradius 54.0952
lwrist 18.7957
lhand -9.94306 26.6986
lfingers 7.12502
lthumb 16.0385 56.0547
rfemur -30.6564 -0.249472 11.2868
rtibia 34.7934
rfoot -17.9175 8.34503
rtoes -16.0989
lfemur -14.5682 7.06516 -28.3322
ltibia 28.0606
lfoot -18.938 -5.71121
ltoes -4.46789
789
root 9.64131 18.0569 8.72962 10.8983 33.3655 5.19734
lowerback -7.82935 -1.55793 -4.29405
upperback -2.41798 -1.66765 -1.75304
thorax 1.9553 -0.823016 0.443586
lowerneck -18.1154 1.76457 3.98923
upperneck 25.1541 2.17243 -2.80998
head 11.2395 1.05134 -1.3699
rclavicle -4.05971e-014 2.44505e-014
rhumerus -36.6842 -0.852756 -85.2837
rradius 25.9591
rwrist 9.88566
rhand -20.8258 9.85861
rfingers 7.12502
rthumb 5.54257 -20.0489
lclavicle -4.05971e-014 2.44505e-014
lhumerus -33.2097 -17.0111 85.5921
lradius 54.3301
lwrist 18.955
lhand -9.97419 26.581
lfingers 7.12502
lthumb 16.0085 55.9396
rfemur -30.9053 0.195221 11.4248
rtibia 33.3438
rfoot -17.5263 8.40408
rtoes -15.5535
lfemur -14.3682 6.72584 -27.8955
ltibia 27.8534
lfoot -18.9112 -6.04231
ltoes -3.05079
790
root 9.66759 18.0644 8.79083 10.7941 33.9571 4.64992
lowerback -7.76492 -1.5431 -3.77802
upperback -2.49162 -1.69722 -1.64184
thorax 1.83401 -0.835381 0.270253
lowerneck -18.1782 1.63738 3.91101
upperneck 25.2631 1.99596 -2.73512
head 11.2841 0.974045 -1.35624
rclavicle 7.38143e-015 -4.57205e-015
rhumerus -36.6733 -0.582268 -85.4956
rradius 26.2185
rwrist 9.35783
rhand -20.6329 9.92678
rfingers 7.12502
rthumb 5.72882 -19.9758
lclavicle 7.38143e-015 -4.57205e-015
lhumerus -33.1913 -17.2395 85.6912
lradius 54.4905
lwrist 19.1061
lhand -9.944 26.6632
lfingers 7.12502
lthumb 16.0376 56.0194
rfemur -31.2266 0.445836 11.8777
rtibia 31.9401
rfoot -16.999 8.38503
rtoes -16.1535
lfemur -14.2569 6.4817 -27.2251
ltibia 27.687
lfoot -19.1146 -6.18782
ltoes -3.65816
791
root 9.69673 18.0641 8.85507 10.7944 34.4405 4.48433
lowerback -7.65522 -1.51779 -3.63398
upperback -2.53249 -1.68242 -1.60646
thorax 1.7277 -0.826281 0.231249
lowerneck -18.1715 1.50459 3.87708
upperneck 25.3059 1.80768 -2.69147
head 11.2905 0.892021 -1.36303
rclavicle 2.80939e-015 2.32578e-014
rhumerus -36.655 -0.329518 -85.6565
rradius 26.4322
rwrist 8.92022
rhand -20.2366 10.3489
rfingers 7.12502
rthumb 6.11137 -19.5429
lclavicle 2.80939e-015 2.32578e-014
lhumerus -33.1911 -17.4131 85.8185
lradius 54.5801
lwrist 19.1143
lhand -9.91073 26.7491
lfingers 7.12502
lthumb 16.0696 56.1027
rfemur -31.4151 0.444772 12.0262
rtibia 30.5801
rfoot -16.3105 8.66625
rtoes -16.5146
lfemur -14.0221 6.29174 -26.9331
ltibia 27.5375
lfoot -19.3723 -6.23484
ltoes -4.66701
792
root 9.73433 18.0657 8.92388 10.8584 34.8711 4.55515
lowerback -7.64325 -1.49926 -3.67731
upperback -2.49378 -1.65428 -1.59038
thorax 1.76182 -0.813001 0.27432
lowerneck -18.1933 1.38222 3.72753
upperneck 25.3245 1.6555 -2.60347
head 11.2935 0.820262 -1.32828
rclavicle 3.18374e-014 1.15295e-014
rhumerus -36.5639 -0.115375 -85.7142
rradius 26.6404
rwrist 8.69248
rhand -20.0067 10.7567
rfingers 7.12502
rthumb 6.33336 -19.1286
lclavicle 3.18374e-014 1.15295e-014
lhumerus -33.1687 -17.4074 86.0091
lradius 54.6179
lwrist 19.0468
lhand -9.90042 26.5365
lfingers 7.12502
lthumb 16.0795 55.8893
rfemur -31.5064 0.422733 11.8999
rtibia 29.3459
rfoot -15.5847 9.40487
rtoes -17.3209
lfemur -13.6167 6.31643 -26.9037
ltibia 27.2922
lfoot -19.618 -6.22752
ltoes -7.01708
